#Comment line ignore any data following # character 
#Hierarchical Translation and Rotation (.htr) file 
[Header]	
#Header keywords are followed by a single value 
FileType HTR		#Single word string
DataType HTRS		#Translation followed by rotation and scale data
FileVersion 1		#integer
NumSegments 84		#integer
NumFrames 2		#integer
DataFrameRate 30		#integer, data frame rate in this file
EulerRotationOrder ZYX
CalibrationUnits mm
RotationUnits Degrees
GlobalAxisofGravity Y
BoneLengthAxis Y
ScaleFactor 1.00
[SegmentNames&Hierarchy]
#CHILD	PARENT
MASTER GLOBAL
root MASTER
chest root
L_mid_tent01 root
R_mid_tent01 root
spine01 root
Bip01_Neck chest
L_humerus chest
R_humerus chest
weapon_bone chest
Bip01_Head Bip01_Neck
eye_left_bone Bip01_Head
eye_right_bone Bip01_Head
L_forearm L_humerus
L_front_hand L_forearm
L_weapon_bone L_forearm
L_front_hand01_01 L_front_hand
L_front_hand02_01 L_front_hand
L_front_hand03_01 L_front_hand
L_front_hand01_02 L_front_hand01_01
L_front_hand02_02 L_front_hand02_01
L_front_hand03_02 L_front_hand03_01
R_forearm R_humerus
R_front_hand R_forearm
R_weapon_bone R_forearm
R_front_hand01_01 R_front_hand
R_front_hand02_01 R_front_hand
R_front_hand03_01 R_front_hand
R_front_hand01_02 R_front_hand01_01
R_front_hand02_02 R_front_hand02_01
R_front_hand03_02 R_front_hand03_01
null_rope01_connect L_mid_tent01
Rope1_Seg01 null_rope01_connect
Rope1_Seg02 Rope1_Seg01
Rope1_Seg03 Rope1_Seg02
Rope1_Seg04 Rope1_Seg03
Rope1_Seg05 Rope1_Seg04
Rope1_Seg06 Rope1_Seg05
Rope1_Seg07 Rope1_Seg06
Rope1_Seg09 Rope1_Seg07
L_mid_hand01 Rope1_Seg09
L_mid_hand02 Rope1_Seg09
L_mid_hand03 Rope1_Seg09
null_rope02_connect R_mid_tent01
Rope2_Seg01 null_rope02_connect
Rope2_Seg02 Rope2_Seg01
Rope2_Seg03 Rope2_Seg02
Rope2_Seg04 Rope2_Seg03
Rope2_Seg05 Rope2_Seg04
Rope2_Seg06 Rope2_Seg05
Rope2_Seg07 Rope2_Seg06
Rope2_Seg09 Rope2_Seg07
R_mid_hand01 Rope2_Seg09
R_mid_hand02 Rope2_Seg09
R_mid_hand03 Rope2_Seg09
spine02 spine01
spine03 spine02
pelvis spine03
null_rope03_connect pelvis
null_rope04_connect pelvis
Rope3_Seg01 null_rope03_connect
Rope3_Seg02 Rope3_Seg01
Rope3_Seg03 Rope3_Seg02
Rope3_Seg04 Rope3_Seg03
Rope3_Seg05 Rope3_Seg04
Rope3_Seg06 Rope3_Seg05
Rope3_Seg07 Rope3_Seg06
Rope3_Seg08 Rope3_Seg07
Rope3_Seg09 Rope3_Seg08
R_rear_hand01 Rope3_Seg09
R_rear_hand02 Rope3_Seg09
R_rear_hand03 Rope3_Seg09
Rope4_Seg01 null_rope04_connect
Rope4_Seg02 Rope4_Seg01
Rope4_Seg03 Rope4_Seg02
Rope4_Seg04 Rope4_Seg03
Rope4_Seg05 Rope4_Seg04
Rope4_Seg06 Rope4_Seg05
Rope4_Seg07 Rope4_Seg06
Rope4_Seg08 Rope4_Seg07
Rope4_Seg09 Rope4_Seg08
L_rear_hand01 Rope4_Seg09
L_rear_hand02 Rope4_Seg09
L_rear_hand03 Rope4_Seg09
[BasePosition]
#SegmentName Tx, Ty, Tz, Rx, Ry, Rz, BoneLength
MASTER 0.000000 0.000000 0.000000 -90.000000 0.000000 0.000000 10.000000 
root 0.000000 0.000000 0.000000 0.000000 0.000000 0.000000 10.000000 
chest 0.000000 0.000000 0.000000 0.000000 0.000000 0.000000 10.000000 
L_mid_tent01 0.000000 0.000000 0.000000 0.000000 0.000000 0.000000 10.000000 
R_mid_tent01 0.000000 0.000000 0.000000 0.000000 0.000000 0.000000 10.000000 
spine01 0.000000 0.000000 0.000000 0.000000 0.000000 0.000000 10.000000 
Bip01_Neck 0.000000 0.000000 0.000000 0.000000 0.000000 0.000000 10.000000 
L_humerus 0.000000 0.000000 0.000000 0.000000 0.000000 0.000000 10.000000 
R_humerus 0.000000 0.000000 0.000000 0.000000 0.000000 0.000000 10.000000 
weapon_bone 0.000000 0.000000 0.000000 0.000000 0.000000 0.000000 10.000000 
Bip01_Head 0.000000 0.000000 0.000000 0.000000 0.000000 0.000000 10.000000 
eye_left_bone 0.000000 0.000000 0.000000 0.000000 0.000000 0.000000 10.000000 
eye_right_bone 0.000000 0.000000 0.000000 0.000000 0.000000 0.000000 10.000000 
L_forearm 0.000000 0.000000 0.000000 0.000000 0.000000 0.000000 10.000000 
L_front_hand 0.000000 0.000000 0.000000 0.000000 0.000000 0.000000 10.000000 
L_weapon_bone 0.000000 0.000000 0.000000 0.000000 0.000000 0.000000 10.000000 
L_front_hand01_01 0.000000 0.000000 0.000000 0.000000 0.000000 0.000000 10.000000 
L_front_hand02_01 0.000000 0.000000 0.000000 0.000000 0.000000 0.000000 10.000000 
L_front_hand03_01 0.000000 0.000000 0.000000 0.000000 0.000000 0.000000 10.000000 
L_front_hand01_02 0.000000 0.000000 0.000000 0.000000 0.000000 0.000000 10.000000 
L_front_hand02_02 0.000000 0.000000 0.000000 0.000000 0.000000 0.000000 10.000000 
L_front_hand03_02 0.000000 0.000000 0.000000 0.000000 0.000000 0.000000 10.000000 
R_forearm 0.000000 0.000000 0.000000 0.000000 0.000000 0.000000 10.000000 
R_front_hand 0.000000 0.000000 0.000000 0.000000 0.000000 0.000000 10.000000 
R_weapon_bone 0.000000 0.000000 0.000000 0.000000 0.000000 0.000000 10.000000 
R_front_hand01_01 0.000000 0.000000 0.000000 0.000000 0.000000 0.000000 10.000000 
R_front_hand02_01 0.000000 0.000000 0.000000 0.000000 0.000000 0.000000 10.000000 
R_front_hand03_01 0.000000 0.000000 0.000000 0.000000 0.000000 0.000000 10.000000 
R_front_hand01_02 0.000000 0.000000 0.000000 0.000000 0.000000 0.000000 10.000000 
R_front_hand02_02 0.000000 0.000000 0.000000 0.000000 0.000000 0.000000 10.000000 
R_front_hand03_02 0.000000 0.000000 0.000000 0.000000 0.000000 0.000000 10.000000 
null_rope01_connect 0.000000 0.000000 0.000000 0.000000 0.000000 0.000000 10.000000 
Rope1_Seg01 0.000000 0.000000 0.000000 0.000000 0.000000 0.000000 10.000000 
Rope1_Seg02 0.000000 0.000000 0.000000 0.000000 0.000000 0.000000 10.000000 
Rope1_Seg03 0.000000 0.000000 0.000000 0.000000 0.000000 0.000000 10.000000 
Rope1_Seg04 0.000000 0.000000 0.000000 0.000000 0.000000 0.000000 10.000000 
Rope1_Seg05 0.000000 0.000000 0.000000 0.000000 0.000000 0.000000 10.000000 
Rope1_Seg06 0.000000 0.000000 0.000000 0.000000 0.000000 0.000000 10.000000 
Rope1_Seg07 0.000000 0.000000 0.000000 0.000000 0.000000 0.000000 10.000000 
Rope1_Seg09 0.000000 0.000000 0.000000 0.000000 0.000000 0.000000 10.000000 
L_mid_hand01 0.000000 0.000000 0.000000 0.000000 0.000000 0.000000 10.000000 
L_mid_hand02 0.000000 0.000000 0.000000 0.000000 0.000000 0.000000 10.000000 
L_mid_hand03 0.000000 0.000000 0.000000 0.000000 0.000000 0.000000 10.000000 
null_rope02_connect 0.000000 0.000000 0.000000 0.000000 0.000000 0.000000 10.000000 
Rope2_Seg01 0.000000 0.000000 0.000000 0.000000 0.000000 0.000000 10.000000 
Rope2_Seg02 0.000000 0.000000 0.000000 0.000000 0.000000 0.000000 10.000000 
Rope2_Seg03 0.000000 0.000000 0.000000 0.000000 0.000000 0.000000 10.000000 
Rope2_Seg04 0.000000 0.000000 0.000000 0.000000 0.000000 0.000000 10.000000 
Rope2_Seg05 0.000000 0.000000 0.000000 0.000000 0.000000 0.000000 10.000000 
Rope2_Seg06 0.000000 0.000000 0.000000 0.000000 0.000000 0.000000 10.000000 
Rope2_Seg07 0.000000 0.000000 0.000000 0.000000 0.000000 0.000000 10.000000 
Rope2_Seg09 0.000000 0.000000 0.000000 0.000000 0.000000 0.000000 10.000000 
R_mid_hand01 0.000000 0.000000 0.000000 0.000000 0.000000 0.000000 10.000000 
R_mid_hand02 0.000000 0.000000 0.000000 0.000000 0.000000 0.000000 10.000000 
R_mid_hand03 0.000000 0.000000 0.000000 0.000000 0.000000 0.000000 10.000000 
spine02 0.000000 0.000000 0.000000 0.000000 0.000000 0.000000 10.000000 
spine03 0.000000 0.000000 0.000000 0.000000 0.000000 0.000000 10.000000 
pelvis 0.000000 0.000000 0.000000 0.000000 0.000000 0.000000 10.000000 
null_rope03_connect 0.000000 0.000000 0.000000 0.000000 0.000000 0.000000 10.000000 
null_rope04_connect 0.000000 0.000000 0.000000 0.000000 0.000000 0.000000 10.000000 
Rope3_Seg01 0.000000 0.000000 0.000000 0.000000 0.000000 0.000000 10.000000 
Rope3_Seg02 0.000000 0.000000 0.000000 0.000000 0.000000 0.000000 10.000000 
Rope3_Seg03 0.000000 0.000000 0.000000 0.000000 0.000000 0.000000 10.000000 
Rope3_Seg04 0.000000 0.000000 0.000000 0.000000 0.000000 0.000000 10.000000 
Rope3_Seg05 0.000000 0.000000 0.000000 0.000000 0.000000 0.000000 10.000000 
Rope3_Seg06 0.000000 0.000000 0.000000 0.000000 0.000000 0.000000 10.000000 
Rope3_Seg07 0.000000 0.000000 0.000000 0.000000 0.000000 0.000000 10.000000 
Rope3_Seg08 0.000000 0.000000 0.000000 0.000000 0.000000 0.000000 10.000000 
Rope3_Seg09 0.000000 0.000000 0.000000 0.000000 0.000000 0.000000 10.000000 
R_rear_hand01 0.000000 0.000000 0.000000 0.000000 0.000000 0.000000 10.000000 
R_rear_hand02 0.000000 0.000000 0.000000 0.000000 0.000000 0.000000 10.000000 
R_rear_hand03 0.000000 0.000000 0.000000 0.000000 0.000000 0.000000 10.000000 
Rope4_Seg01 0.000000 0.000000 0.000000 0.000000 0.000000 0.000000 10.000000 
Rope4_Seg02 0.000000 0.000000 0.000000 0.000000 0.000000 0.000000 10.000000 
Rope4_Seg03 0.000000 0.000000 0.000000 0.000000 0.000000 0.000000 10.000000 
Rope4_Seg04 0.000000 0.000000 0.000000 0.000000 0.000000 0.000000 10.000000 
Rope4_Seg05 0.000000 0.000000 0.000000 0.000000 0.000000 0.000000 10.000000 
Rope4_Seg06 0.000000 0.000000 0.000000 0.000000 0.000000 0.000000 10.000000 
Rope4_Seg07 0.000000 0.000000 0.000000 0.000000 0.000000 0.000000 10.000000 
Rope4_Seg08 0.000000 0.000000 0.000000 0.000000 0.000000 0.000000 10.000000 
Rope4_Seg09 0.000000 0.000000 0.000000 0.000000 0.000000 0.000000 10.000000 
L_rear_hand01 0.000000 0.000000 0.000000 0.000000 0.000000 0.000000 10.000000 
L_rear_hand02 0.000000 0.000000 0.000000 0.000000 0.000000 0.000000 10.000000 
L_rear_hand03 0.000000 0.000000 0.000000 0.000000 0.000000 0.000000 10.000000 
#Beginning of Data. Separated by tabs
#Fr	Tx	Ty	Tz	Rx	Ry	Rz	SF
[MASTER]
16 -141.305710 1803.338989 1247.479736 0.001660 0.001660 0.001660 2197.317383
17 -137.036865 1991.875732 1220.746582 0.001660 0.001660 0.001660 2340.207275
[root]
16 10.025808 111.731590 734.099365 -95.799904 -7.458181 -89.897591 742.621277
17 0.869741 158.660126 778.518127 -96.190277 -11.523763 -89.207359 794.521423
[chest]
16 -84.512650 -34.090519 0.000000 4.711525 10.083507 145.500504 91.129311
17 -84.512650 -34.090519 0.000000 2.468426 8.240129 144.190536 91.129311
[L_mid_tent01]
16 27.299145 22.179050 -249.918701 -0.109586 18.979359 80.965538 252.381683
17 27.299147 22.179047 -249.918701 -0.136843 18.701595 81.119820 252.381683
[R_mid_tent01]
16 23.228794 24.509907 226.238495 153.450470 -28.805233 66.784492 228.744751
17 23.228794 24.509907 226.238495 149.699249 -30.547520 66.664360 228.744751
[spine01]
16 -0.361383 -0.195265 0.000000 -0.000001 -0.000007 22.052340 0.410763
17 -0.361383 -0.195265 0.000000 -0.000001 -0.000007 22.052340 0.410763
[Bip01_Neck]
16 165.484543 71.581718 0.000119 176.643677 -1.657967 43.431911 180.302734
17 165.484543 71.581718 0.000119 176.643677 -1.657967 43.431911 180.302734
[L_humerus]
16 -13.983130 -135.272980 -120.471481 157.361740 67.746635 -110.857513 181.680161
17 -13.983130 -135.272980 -120.471481 162.537201 60.456589 -105.148979 181.680161
[R_humerus]
16 -13.983309 -135.273102 125.287651 -174.870880 -38.880089 -89.427559 184.909012
17 -13.983309 -135.273102 125.287651 -175.315201 -32.719784 -88.781494 184.909012
[weapon_bone]
16 235.964890 -300.705902 0.000000 0.000000 -89.951546 -128.212341 382.234833
17 235.964890 -300.705902 0.000000 0.000000 -89.951546 -128.212341 382.234833
[Bip01_Head]
16 213.334503 186.008453 7.805253 4.962491 2.797846 -43.898746 283.146027
17 213.341568 185.980179 8.043557 4.962490 2.797846 -43.898743 283.139465
[eye_left_bone]
16 -24.626970 125.451866 -64.772606 0.000000 -90.000000 -99.840431 143.318359
17 -24.626970 125.451866 -64.772606 0.000000 -90.000000 -99.840431 143.318359
[eye_right_bone]
16 -24.626970 125.451866 64.327362 0.000000 -89.965736 80.156380 143.117676
17 -24.626970 125.451866 64.327362 0.000000 -89.965736 80.156380 143.117676
[L_forearm]
16 322.776093 0.000000 -0.000119 0.000395 -0.002314 -109.377556 322.776093
17 322.776093 0.000000 -0.000119 0.000390 -0.002315 -109.147087 322.776093
[L_front_hand]
16 241.149185 -0.042021 -3.300071 49.010738 -1.833984 -27.425127 241.171753
17 241.149185 -0.042021 -3.300071 19.714808 -1.837144 -27.423819 241.171753
[L_weapon_bone]
16 156.183838 0.000000 0.000000 0.000014 0.000007 0.000001 156.183838
17 156.183838 0.000000 0.000000 0.000014 0.000007 0.000001 156.183838
[L_front_hand01_01]
16 86.095154 20.947098 -0.655860 -0.307662 -0.512638 68.898659 88.609184
17 86.095154 20.947098 -0.655860 -0.320916 -0.506937 70.186226 88.609184
[L_front_hand02_01]
16 86.935165 -11.437475 24.513514 145.311661 -56.611855 -50.692310 91.046425
17 86.935165 -11.437475 24.513514 146.956512 -57.330299 -52.653660 91.046425
[L_front_hand03_01]
16 86.637497 -14.123976 -20.424902 -145.445221 54.832184 -52.559975 90.126129
17 86.637497 -14.123976 -20.424902 -146.987762 55.547066 -54.435081 90.126129
[L_front_hand01_02]
16 71.020905 -0.000179 0.000030 0.000300 -0.002328 -104.690079 71.020905
17 71.020905 -0.000179 0.000030 0.000294 -0.002329 -104.402451 71.020905
[L_front_hand02_02]
16 71.020927 -0.000119 0.000060 0.000300 -0.002328 -104.690079 71.020927
17 71.020927 -0.000119 0.000060 0.000294 -0.002329 -104.402451 71.020927
[L_front_hand03_02]
16 71.020905 -0.000060 0.000060 0.000300 -0.002328 -104.690079 71.020905
17 71.020905 -0.000060 0.000060 0.000294 -0.002329 -104.402451 71.020905
[R_forearm]
16 322.776428 -0.000060 0.000030 0.201942 0.065653 -108.343643 322.776428
17 322.776428 -0.000060 0.000030 0.202061 0.065287 -108.136124 322.776428
[R_front_hand]
16 238.847015 -0.006795 2.210259 -171.241486 -10.643137 -26.311678 238.857239
17 238.847015 -0.006795 2.210259 -132.962891 -10.644146 -26.312435 238.857239
[R_weapon_bone]
16 155.664093 0.002503 -0.000030 0.003487 0.001180 -90.988930 155.664078
17 155.664093 0.002503 -0.000030 0.003487 0.001180 -90.988930 155.664078
[R_front_hand01_01]
16 87.624611 14.231146 22.918642 -147.366226 -57.494873 53.245708 91.683487
17 87.624611 14.231146 22.918642 -150.820541 -58.784569 57.311836 91.683487
[R_front_hand02_01]
16 89.356956 14.367283 -19.491137 147.772629 55.873177 55.617874 92.579636
17 89.356956 14.367283 -19.491137 151.027069 57.144753 59.518578 92.579636
[R_front_hand03_01]
16 87.286232 -22.307278 -0.143439 0.124412 -0.437303 -70.732681 90.091743
17 87.286232 -22.307278 -0.143439 0.144811 -0.432555 -73.232849 90.091743
[R_front_hand01_02]
16 71.020905 0.000060 0.000119 0.002331 -0.000274 103.397835 71.020905
17 71.020905 0.000060 0.000119 0.002332 -0.000271 103.276939 71.020905
[R_front_hand02_02]
16 71.020844 -0.000030 -0.000119 0.002331 -0.000274 103.397835 71.020836
17 71.020844 -0.000030 -0.000119 0.002332 -0.000271 103.276939 71.020836
[R_front_hand03_02]
16 71.020905 0.000000 0.000030 0.002331 -0.000274 103.397835 71.020905
17 71.020905 0.000000 0.000030 0.002332 -0.000271 103.276939 71.020905
[null_rope01_connect]
16 328.732483 0.000000 -0.000238 -165.994598 -65.297935 -177.359665 328.732483
17 328.732483 0.000000 -0.000238 -163.682693 -65.392899 -175.618988 328.732483
[Rope1_Seg01]
16 0.000000 0.000000 0.000000 -44.440487 -37.406929 -169.250443 0.000000
17 0.000000 0.000000 0.000000 -29.933447 -35.774776 166.733231 0.000000
[Rope1_Seg02]
16 139.999863 -0.000179 0.000000 8.729509 13.332039 0.559482 139.999863
17 139.999863 -0.000179 0.000000 6.967635 8.610753 8.757334 139.999863
[Rope1_Seg03]
16 139.999924 0.000060 -0.000060 6.590666 23.257034 -3.674179 139.999924
17 139.999924 0.000060 -0.000060 12.505836 16.856434 13.968975 139.999924
[Rope1_Seg04]
16 139.999924 -0.000060 -0.000119 -0.879638 22.783548 -10.380286 139.999924
17 139.999924 -0.000060 -0.000119 10.863104 21.554100 11.912018 139.999924
[Rope1_Seg05]
16 139.999832 0.000119 -0.000060 -4.504719 25.963076 1.065641 139.999832
17 139.999832 0.000119 -0.000060 10.483330 34.794037 16.077459 139.999832
[Rope1_Seg06]
16 139.999954 0.000119 -0.000060 -16.550047 42.762939 16.442482 139.999954
17 139.999954 0.000119 -0.000060 -0.172448 31.621096 10.675482 139.999954
[Rope1_Seg07]
16 139.999985 0.000060 0.000000 -10.188743 15.038034 11.158138 139.999985
17 139.999985 0.000060 0.000000 -2.442763 10.826406 3.895281 139.999985
[Rope1_Seg09]
16 121.602913 0.000119 -0.000089 -89.793175 -1.359789 0.847147 121.602913
17 121.602913 0.000119 -0.000089 -89.793175 -1.359789 0.847147 121.602913
[L_mid_hand01]
16 103.859421 1.038730 8.195221 112.678780 -49.980732 -18.276028 104.187431
17 103.859421 1.038730 8.195221 114.394852 -53.111439 -20.468830 104.187431
[L_mid_hand02]
16 105.572853 -4.139662 -10.864139 -152.571289 36.560638 -48.342640 106.211075
17 105.572853 -4.139662 -10.864139 -154.909470 38.072205 -52.197872 106.211075
[L_mid_hand03]
16 104.641464 17.579376 -3.913581 -11.926215 14.597148 53.941067 106.179977
17 104.641464 17.579376 -3.913581 -11.031654 15.280054 57.403896 106.179977
[null_rope02_connect]
16 328.732849 0.000179 -0.000119 -96.057564 53.230484 48.215546 328.732849
17 328.732849 0.000179 -0.000119 -89.298058 48.772968 49.635452 328.732849
[Rope2_Seg01]
16 0.000052 0.000095 0.000000 134.103592 -61.287262 15.088270 0.000109
17 0.000053 0.000092 0.000000 128.387329 -60.202251 20.414667 0.000106
[Rope2_Seg02]
16 139.999741 -0.000060 -0.000119 -5.178422 -3.393700 -8.217715 139.999756
17 139.999741 -0.000060 -0.000119 -3.582054 -6.186420 -3.849078 139.999756
[Rope2_Seg03]
16 140.000107 0.000030 0.000000 -15.872662 -17.049894 -29.778181 140.000107
17 140.000107 0.000030 0.000000 -19.755644 -27.705940 -10.041718 140.000107
[Rope2_Seg04]
16 139.999802 0.000000 -0.000060 -15.713667 20.745987 -59.912670 139.999802
17 139.999802 0.000000 -0.000060 -30.910120 -5.990638 -75.625549 139.999802
[Rope2_Seg05]
16 139.999985 -0.000060 0.000119 -2.641475 21.297241 -8.434436 139.999985
17 139.999985 -0.000060 0.000119 -6.884750 37.509834 -16.530764 139.999985
[Rope2_Seg06]
16 139.999893 -0.000030 -0.000119 0.958279 4.547099 -3.217671 139.999893
17 139.999893 -0.000030 -0.000119 0.510378 5.053475 -3.060377 139.999893
[Rope2_Seg07]
16 139.999893 0.000060 -0.000060 0.631517 2.271451 -1.667766 139.999893
17 139.999893 0.000060 -0.000060 0.328050 2.345502 -1.455898 139.999893
[Rope2_Seg09]
16 121.338966 0.000089 -0.000060 33.793236 -1.359788 -0.847141 121.338966
17 121.338966 0.000089 -0.000060 33.793236 -1.359788 -0.847141 121.338966
[R_mid_hand01]
16 104.680779 11.144459 -10.335981 -37.204075 31.906813 37.576267 105.778534
17 104.680779 11.144459 -10.335981 -36.871494 32.306065 38.202835 105.778534
[R_mid_hand02]
16 104.070427 2.443552 8.231699 70.367462 -42.427391 14.067811 104.424065
17 104.070427 2.443552 8.231699 70.157997 -43.050724 14.375076 104.424065
[R_mid_hand03]
16 106.028137 -11.221827 -5.996406 -169.893616 12.226658 -47.211018 106.788818
17 106.028137 -11.221827 -5.996406 -170.040359 12.343988 -47.884888 106.788818
[spine02]
16 129.756927 0.001550 0.000119 0.538614 -4.023777 -15.474610 129.756927
17 129.756927 0.001550 0.000119 0.534315 -4.024356 -15.422028 129.756927
[spine03]
16 78.613998 0.081539 -4.899006 2.000257 3.776486 18.067295 78.766541
17 78.613998 0.081543 -4.899006 1.999574 3.779497 18.034771 78.766541
[pelvis]
16 169.435242 0.051022 0.000000 -0.070410 -0.177705 17.318193 169.435257
17 169.435242 0.051022 0.000000 -0.070309 -0.177745 17.253162 169.435257
[null_rope03_connect]
16 -1.257226 -2.466202 137.391083 -171.867813 -85.520706 -132.623993 137.418976
17 -1.257226 -2.466202 137.391083 -175.943451 -85.227386 -124.416336 137.418976
[null_rope04_connect]
16 -1.259640 -2.480268 -137.844437 -171.867813 -85.520706 -132.623993 137.872513
17 -1.259640 -2.480268 -137.844437 -175.943451 -85.227386 -124.416336 137.872513
[Rope3_Seg01]
16 -0.000026 -0.000138 0.000000 9.671677 -44.836941 -60.416405 0.000141
17 -0.000027 -0.000145 0.000000 9.198579 -58.011414 -59.264111 0.000147
[Rope3_Seg02]
16 139.999924 -0.000119 0.000060 -0.451095 2.246063 14.994368 139.999924
17 139.999924 -0.000119 0.000060 0.042856 -0.791290 9.825879 139.999924
[Rope3_Seg03]
16 139.999924 -0.000119 0.000119 -21.580173 5.627227 51.232182 139.999924
17 139.999924 -0.000119 0.000119 -4.563701 -1.952404 26.261278 139.999924
[Rope3_Seg04]
16 139.999924 0.000119 0.000000 -78.205597 -11.144567 40.425571 139.999924
17 139.999924 0.000119 0.000000 -36.798439 -5.738498 47.952633 139.999924
[Rope3_Seg05]
16 139.999924 -0.000238 0.000060 -19.652775 -17.765463 1.873955 139.999924
17 139.999924 -0.000238 0.000060 -35.750057 -18.187811 19.254805 139.999924
[Rope3_Seg06]
16 139.999893 -0.000119 -0.000060 -7.349528 -13.243556 -3.011173 139.999893
17 139.999893 -0.000119 -0.000060 -17.397486 -20.859657 3.538293 139.999893
[Rope3_Seg07]
16 139.999771 0.000060 -0.000119 -2.197346 -7.304743 -2.986092 139.999771
17 139.999771 0.000060 -0.000119 -5.395080 -12.338830 -1.317149 139.999771
[Rope3_Seg08]
16 139.999985 -0.000060 0.000000 -0.651126 -4.036012 -1.841189 139.999985
17 139.999985 -0.000060 0.000000 -1.581191 -6.142081 -1.241007 139.999985
[Rope3_Seg09]
16 90.185997 -0.000179 -0.000060 89.793228 -1.359877 -0.847183 90.185997
17 90.185997 -0.000179 -0.000060 89.793228 -1.359877 -0.847183 90.185997
[R_rear_hand01]
16 103.366196 -6.073594 -10.757982 -164.972809 19.789427 -40.983841 104.101845
17 103.366196 -6.073594 -10.757982 -165.575058 20.224255 -42.745789 104.101845
[R_rear_hand02]
16 100.509819 12.039542 -7.992327 -30.544968 25.097786 38.729183 101.543350
17 100.509819 12.039542 -7.992327 -29.842968 25.960022 40.362484 101.543350
[R_rear_hand03]
16 101.539970 5.215704 5.435467 82.376854 -41.657902 8.948386 101.819031
17 101.539970 5.215704 5.435467 82.169113 -43.351929 9.256878 101.819031
[Rope4_Seg01]
16 0.000010 0.000038 -0.000114 -40.993469 -29.032398 179.903122 0.000121
17 0.000010 0.000038 -0.000114 -50.099556 -27.782297 -173.075302 0.000121
[Rope4_Seg02]
16 139.999985 0.000060 0.000119 -4.666604 5.455466 7.321815 139.999985
17 139.999985 0.000060 0.000119 -7.525092 2.256397 9.163445 139.999985
[Rope4_Seg03]
16 139.999924 0.000000 -0.000238 -12.282369 7.013259 11.488861 139.999924
17 139.999924 0.000000 -0.000238 -15.223104 1.456665 13.718480 139.999924
[Rope4_Seg04]
16 139.999985 0.000000 0.000119 -24.806507 0.285665 12.869099 139.999985
17 139.999985 0.000000 0.000119 -19.450537 -9.994468 13.150230 139.999985
[Rope4_Seg05]
16 139.999802 -0.000060 -0.000119 -54.524231 0.731568 24.911161 139.999802
17 139.999802 -0.000060 -0.000119 -23.181419 -5.367765 20.143225 139.999802
[Rope4_Seg06]
16 139.999924 0.000000 0.000060 -39.650200 -18.505766 22.717888 139.999924
17 139.999924 0.000000 0.000060 -37.511147 -4.746487 33.658970 139.999924
[Rope4_Seg07]
16 139.999802 0.000000 0.000000 -5.720478 -11.273735 2.303419 139.999802
17 139.999802 0.000000 0.000000 -13.371752 -11.175624 11.229127 139.999802
[Rope4_Seg08]
16 139.999924 0.000000 0.000119 -3.083558 -5.022017 0.354826 139.999924
17 139.999924 0.000000 0.000119 -4.926351 -5.385656 2.815658 139.999924
[Rope4_Seg09]
16 90.185791 0.000060 0.000060 -135.617828 2.228885 0.850567 90.185791
17 90.185791 0.000060 0.000060 -135.617828 2.228885 0.850567 90.185791
[L_rear_hand01]
16 101.696655 -8.392275 -7.654577 -24.658646 -30.887184 128.783096 102.329041
17 101.696655 -8.392275 -7.654577 -22.991795 -32.088032 125.593971 102.329041
[L_rear_hand02]
16 102.726799 -1.568258 5.773216 80.302322 53.966492 168.267426 102.900848
17 102.726799 -1.568258 5.773216 79.542931 56.888847 167.348526 102.900848
[L_rear_hand03]
16 104.552910 9.721220 -10.420293 -169.691238 -22.530384 -125.995583 105.519653
17 104.552910 9.721220 -10.420293 -170.919907 -23.031248 -122.815849 105.519653
